<svg width="148" height="148" viewBox="0 0 148 148" fill="none" xmlns="http://www.w3.org/2000/svg">
<path d="M75.0255 61.4825C55.9139 42.3733 34.9578 32.3452 28.2166 39.084C27.4769 39.8589 26.9326 40.7986 26.6287 41.8259L26.5202 41.7174L20.0822 68.1004L13.6714 94.4046L6.07207 125.551L1.26147 145.277L29.7428 134.499L65.969 120.793L94.8695 109.857L94.835 109.823C95.8025 109.514 96.6877 108.991 97.424 108.291C104.165 101.55 94.1372 80.5942 75.0255 61.4825Z" fill="#DD1C4B"/>
<path d="M75.0253 61.4748C55.9143 42.3638 34.9576 32.3355 28.2173 39.0758C21.4769 45.8162 31.5053 66.7729 50.6163 85.8838C69.7272 104.995 90.6839 115.023 97.4242 108.283C104.165 101.542 94.1362 80.5858 75.0253 61.4748Z" fill="#D1E3EE"/>
<path d="M92.246 110.71C88.7953 110.771 85.3717 110.091 82.2057 108.718L58.5842 117.656L22.3457 131.351L2.9135 138.703L1.26147 145.477L29.7428 134.699L65.969 120.992L92.4926 110.957L92.246 110.71Z" fill="#B21D48"/>
<path d="M122.081 91.2311C121.785 91.2302 121.493 91.1775 121.215 91.0758C108.698 86.3863 95.1669 85.0715 81.981 87.2638L73.1735 88.7309C71.8253 88.9232 70.5765 87.9863 70.3841 86.6381C70.1983 85.3356 71.0677 84.1166 72.3598 83.8685L81.1697 82.3891C95.2101 80.0562 109.617 81.4552 122.946 86.4452C124.228 86.9057 124.893 88.3179 124.433 89.5994C124.077 90.5894 123.133 91.2447 122.081 91.2311Z" fill="#FFBF41"/>
<path d="M77.6981 76.437C76.3364 76.429 75.2389 75.3185 75.2469 73.9569C75.2524 73.0168 75.7918 72.1618 76.6378 71.7522L128.418 47.0951C129.647 46.5095 131.119 47.0317 131.704 48.2614C132.29 49.4912 131.768 50.9626 130.538 51.5482L78.7583 76.2053C78.4267 76.3603 78.0646 76.4395 77.6981 76.437Z" fill="#FFBF41"/>
<path d="M48.8642 71.5056C48.539 71.5062 48.217 71.4418 47.9174 71.3157C46.6605 70.7915 46.0666 69.3478 46.5908 68.0909V68.0906L50.176 59.4877C55.6921 46.307 56.9782 31.7384 53.8573 17.7951C53.5373 16.4713 54.3513 15.1392 55.6748 14.8193C56.9986 14.4994 58.3307 15.3134 58.6506 16.6369C58.6577 16.6661 58.6642 16.6954 58.6703 16.725C62.0138 31.6613 60.6352 47.2674 54.7252 61.3863L51.1376 69.9892C50.7548 70.9067 49.8585 71.5047 48.8642 71.5056Z" fill="#FFBF41"/>
<path d="M134.41 101.094C137.133 101.094 139.341 98.8862 139.341 96.1626C139.341 93.4391 137.133 91.2312 134.41 91.2312C131.686 91.2312 129.478 93.4391 129.478 96.1626C129.478 98.8862 131.686 101.094 134.41 101.094Z" fill="#D5557E"/>
<path d="M75.2327 32.0542C77.9562 32.0542 80.1641 29.8464 80.1641 27.1228C80.1641 24.3993 77.9562 22.1914 75.2327 22.1914C72.5091 22.1914 70.3013 24.3993 70.3013 27.1228C70.3013 29.8464 72.5091 32.0542 75.2327 32.0542Z" fill="#DD95C1"/>
<path d="M53.0413 9.86282C50.3176 9.86282 48.1099 7.65509 48.1099 4.93141C48.1099 2.20773 50.3176 0 53.0413 0C55.765 0 57.9727 2.20773 57.9727 4.93141C57.9727 7.65509 55.765 9.86282 53.0413 9.86282Z" fill="#7FCCCB"/>
<path d="M122.082 19.7257C120.72 19.7257 119.616 18.6217 119.616 17.26V14.7943C119.616 13.4326 120.72 12.3286 122.082 12.3286C123.443 12.3286 124.547 13.4326 124.547 14.7943V17.26C124.547 18.6217 123.444 19.7257 122.082 19.7257Z" fill="#2276BB"/>
<path d="M122.082 7.39712C120.72 7.39712 119.616 6.2931 119.616 4.93141V2.46571C119.616 1.10402 120.72 0 122.082 0C123.443 0 124.547 1.10402 124.547 2.46571V4.93141C124.547 6.2931 123.444 7.39712 122.082 7.39712Z" fill="#2276BB"/>
<path d="M129.479 12.3286H127.013C125.651 12.3286 124.547 11.2246 124.547 9.86292C124.547 8.50124 125.651 7.39722 127.013 7.39722H129.479C130.84 7.39722 131.944 8.50124 131.944 9.86292C131.944 11.2246 130.841 12.3286 129.479 12.3286Z" fill="#2276BB"/>
<path d="M117.15 12.3286H114.684C113.323 12.3286 112.219 11.2246 112.219 9.86292C112.219 8.50124 113.323 7.39722 114.684 7.39722H117.15C118.512 7.39722 119.616 8.50124 119.616 9.86292C119.616 11.2246 118.512 12.3286 117.15 12.3286Z" fill="#2276BB"/>
<path d="M20.8345 71.5055C20.5583 70.4501 20.3118 69.385 20.0825 68.3L13.6716 94.6042L14.1648 100.618C15.2395 113.439 20.7473 125.486 29.7406 134.687L65.9693 120.992C65.772 120.931 65.5673 120.886 65.3701 120.82C43.4022 112.583 26.7978 94.1964 20.8345 71.5055Z" fill="white"/>
<path d="M65.9691 120.992C65.7719 120.93 65.5672 120.886 65.3699 120.82C62.9967 119.921 60.6722 118.898 58.4068 117.755L25.7756 130.1C27.0128 131.705 28.3372 133.24 29.743 134.699L65.9691 120.992Z" fill="#F6F6E7"/>
<path d="M104.821 29.5366V41.9169H92.4409V29.5366H104.821Z" fill="#C9DA53"/>
<path d="M60.4385 73.9711C59.0768 73.9708 57.9731 72.8664 57.9734 71.5048C57.9737 70.8063 58.2699 70.1409 58.7889 69.6734L83.446 47.482C84.4757 46.591 86.0328 46.7035 86.9239 47.7332C87.7902 48.7343 87.7113 50.2408 86.7451 51.146L62.088 73.3374C61.6356 73.7452 61.0478 73.9708 60.4385 73.9711Z" fill="#FFBF41"/>
<path d="M131.944 64.1085C130.582 64.1085 129.478 63.0045 129.478 61.6428V59.1771C129.478 57.8154 130.582 56.7114 131.944 56.7114C133.305 56.7114 134.409 57.8154 134.409 59.1771V61.6428C134.409 63.0045 133.306 64.1085 131.944 64.1085Z" fill="#FFDB43"/>
<path d="M140.662 60.4961C140.008 60.498 139.38 60.2378 138.919 59.7737L137.176 58.0304C136.23 57.0509 136.257 55.4898 137.236 54.5439C138.192 53.6211 139.707 53.6211 140.662 54.5439L142.406 56.2872C143.368 57.2503 143.368 58.8114 142.405 59.7743C141.943 60.2363 141.316 60.4961 140.662 60.4961Z" fill="#FFDB43"/>
<path d="M144.272 51.78H141.807C140.445 51.78 139.341 50.676 139.341 49.3143C139.341 47.9527 140.445 46.8486 141.807 46.8486H144.272C145.634 46.8486 146.738 47.9527 146.738 49.3143C146.738 50.676 145.634 51.78 144.272 51.78Z" fill="#FFDB43"/>
<path d="M138.919 44.8069C137.557 44.8066 136.454 43.7025 136.454 42.3406C136.454 41.6868 136.714 41.0599 137.176 40.5979L138.919 38.8547C139.898 37.9085 141.459 37.9356 142.405 38.9151C143.328 39.8705 143.328 41.3854 142.405 42.3412L140.662 44.0844C140.2 44.5467 139.573 44.8069 138.919 44.8069Z" fill="#FFDB43"/>
<path d="M131.944 41.9171C130.582 41.9171 129.478 40.8131 129.478 39.4514V36.9857C129.478 35.624 130.582 34.52 131.944 34.52C133.305 34.52 134.409 35.624 134.409 36.9857V39.4514C134.409 40.8131 133.306 41.9171 131.944 41.9171Z" fill="#FFDB43"/>
<path d="M124.968 44.8069C124.314 44.8069 123.687 44.5468 123.225 44.0845L121.482 42.3412C120.536 41.3617 120.563 39.8006 121.542 38.8547C122.498 37.9319 124.012 37.9319 124.968 38.8547L126.712 40.5979C127.674 41.5611 127.674 43.1222 126.711 44.0851C126.249 44.5471 125.622 44.8069 124.968 44.8069Z" fill="#FFDB43"/>
<path d="M13.59 2.46582L17.3995 10.1859L25.9185 11.4237L19.7543 17.4327L21.209 25.9171L13.59 21.9104L5.97097 25.9171L7.42574 17.4327L1.26147 11.4237L9.78049 10.1859L13.59 2.46582Z" fill="#FFDB43"/>
<path d="M145.959 133.557C144.786 129.401 142.086 125.842 138.399 123.594L137.383 122.07C131.687 113.552 122.73 107.76 112.625 106.06C111.277 105.868 110.028 106.805 109.836 108.153C109.65 109.455 110.519 110.674 111.811 110.922C119.1 112.159 125.742 115.862 130.627 121.411C126.52 122.15 122.928 124.617 120.764 128.185C118.109 132.941 119.812 138.949 124.568 141.604C129.324 144.26 135.332 142.557 137.987 137.801C139.002 135.843 139.549 133.676 139.588 131.472C142.211 135.282 142.421 140.258 140.128 144.276C139.433 145.447 139.819 146.96 140.99 147.655C142.161 148.349 143.674 147.963 144.369 146.792C144.391 146.754 144.412 146.716 144.433 146.678C146.673 142.683 147.222 137.959 145.959 133.557ZM133.687 135.394C132.371 137.779 129.371 138.645 126.987 137.329C124.602 136.013 123.736 133.013 125.052 130.629C125.06 130.616 125.067 130.602 125.074 130.589C126.53 128.206 128.984 126.609 131.752 126.244C132.18 126.232 132.605 126.331 132.984 126.53C135.066 127.692 135.176 132.727 133.687 135.394Z" fill="#2BB3CE"/>
</svg>
